<mxfile host="app.diagrams.net" modified="2022-01-30T06:13:20.595Z" agent="5.0 (X11)" etag="wKwbXu-NNSMmySpebUSa" version="16.4.7" type="github" pages="2">
  <diagram id="R2lEEEUBdFMjLlhIrx00" name="Exercice-1">
    <mxGraphModel dx="778" dy="406" grid="1" gridSize="10" guides="1" tooltips="1" connect="1" arrows="1" fold="1" page="1" pageScale="1" pageWidth="850" pageHeight="1100" math="0" shadow="0" extFonts="Permanent Marker^https://fonts.googleapis.com/css?family=Permanent+Marker">
      <root>
        <mxCell id="0" />
        <mxCell id="1" parent="0" />
        <mxCell id="xt2oRVQSO8h4D-dyrIMi-9" value="&lt;div&gt;Personne&lt;/div&gt;" style="whiteSpace=wrap;html=1;align=center;" vertex="1" parent="1">
          <mxGeometry x="375" y="530" width="100" height="40" as="geometry" />
        </mxCell>
        <mxCell id="xt2oRVQSO8h4D-dyrIMi-10" value="&lt;div&gt;Mère de&lt;/div&gt;" style="shape=rhombus;perimeter=rhombusPerimeter;whiteSpace=wrap;html=1;align=center;" vertex="1" parent="1">
          <mxGeometry x="60" y="470" width="120" height="60" as="geometry" />
        </mxCell>
        <mxCell id="xt2oRVQSO8h4D-dyrIMi-11" value="&lt;div&gt;Père de&lt;/div&gt;" style="shape=rhombus;perimeter=rhombusPerimeter;whiteSpace=wrap;html=1;align=center;" vertex="1" parent="1">
          <mxGeometry x="60" y="570" width="120" height="60" as="geometry" />
        </mxCell>
        <mxCell id="xt2oRVQSO8h4D-dyrIMi-12" value="" style="endArrow=none;html=1;rounded=0;dashed=1;shape=link;exitX=1;exitY=0;exitDx=0;exitDy=0;entryX=0;entryY=0;entryDx=0;entryDy=0;" edge="1" parent="1" source="xt2oRVQSO8h4D-dyrIMi-10" target="xt2oRVQSO8h4D-dyrIMi-9">
          <mxGeometry relative="1" as="geometry">
            <mxPoint x="200" y="540" as="sourcePoint" />
            <mxPoint x="360" y="540" as="targetPoint" />
          </mxGeometry>
        </mxCell>
        <mxCell id="xt2oRVQSO8h4D-dyrIMi-13" value="&lt;div&gt;mère&lt;/div&gt;" style="text;html=1;strokeColor=none;fillColor=none;align=center;verticalAlign=middle;whiteSpace=wrap;rounded=0;rotation=10;" vertex="1" parent="1">
          <mxGeometry x="240" y="485" width="60" height="30" as="geometry" />
        </mxCell>
        <mxCell id="xt2oRVQSO8h4D-dyrIMi-15" value="" style="endArrow=none;html=1;rounded=0;dashed=1;exitX=1;exitY=1;exitDx=0;exitDy=0;entryX=0;entryY=0.25;entryDx=0;entryDy=0;" edge="1" parent="1" source="xt2oRVQSO8h4D-dyrIMi-10" target="xt2oRVQSO8h4D-dyrIMi-9">
          <mxGeometry relative="1" as="geometry">
            <mxPoint x="200" y="540" as="sourcePoint" />
            <mxPoint x="360" y="540" as="targetPoint" />
          </mxGeometry>
        </mxCell>
        <mxCell id="xt2oRVQSO8h4D-dyrIMi-16" value="&lt;div&gt;enfant&lt;/div&gt;" style="text;html=1;strokeColor=none;fillColor=none;align=center;verticalAlign=middle;whiteSpace=wrap;rounded=0;rotation=5;" vertex="1" parent="1">
          <mxGeometry x="180" y="500" width="60" height="30" as="geometry" />
        </mxCell>
        <mxCell id="xt2oRVQSO8h4D-dyrIMi-17" value="" style="endArrow=none;html=1;rounded=0;dashed=1;exitX=1;exitY=0;exitDx=0;exitDy=0;entryX=0;entryY=0.75;entryDx=0;entryDy=0;shape=link;" edge="1" parent="1" source="xt2oRVQSO8h4D-dyrIMi-11" target="xt2oRVQSO8h4D-dyrIMi-9">
          <mxGeometry relative="1" as="geometry">
            <mxPoint x="170" y="580" as="sourcePoint" />
            <mxPoint x="330" y="580" as="targetPoint" />
          </mxGeometry>
        </mxCell>
        <mxCell id="xt2oRVQSO8h4D-dyrIMi-18" value="&lt;div&gt;père&lt;/div&gt;" style="text;html=1;strokeColor=none;fillColor=none;align=center;verticalAlign=middle;whiteSpace=wrap;rounded=0;rotation=-5;" vertex="1" parent="1">
          <mxGeometry x="210" y="550" width="60" height="30" as="geometry" />
        </mxCell>
        <mxCell id="xt2oRVQSO8h4D-dyrIMi-19" value="" style="endArrow=none;html=1;rounded=0;dashed=1;exitX=1;exitY=1;exitDx=0;exitDy=0;entryX=0;entryY=1;entryDx=0;entryDy=0;" edge="1" parent="1" source="xt2oRVQSO8h4D-dyrIMi-11" target="xt2oRVQSO8h4D-dyrIMi-9">
          <mxGeometry relative="1" as="geometry">
            <mxPoint x="200" y="599.83" as="sourcePoint" />
            <mxPoint x="360" y="599.83" as="targetPoint" />
          </mxGeometry>
        </mxCell>
        <mxCell id="xt2oRVQSO8h4D-dyrIMi-20" value="&lt;div&gt;enfant&lt;/div&gt;" style="text;html=1;strokeColor=none;fillColor=none;align=center;verticalAlign=middle;whiteSpace=wrap;rounded=0;rotation=-10;" vertex="1" parent="1">
          <mxGeometry x="190" y="580" width="60" height="30" as="geometry" />
        </mxCell>
        <mxCell id="xt2oRVQSO8h4D-dyrIMi-21" value="Marié à" style="shape=rhombus;perimeter=rhombusPerimeter;whiteSpace=wrap;html=1;align=center;" vertex="1" parent="1">
          <mxGeometry x="365" y="300" width="120" height="60" as="geometry" />
        </mxCell>
        <mxCell id="xt2oRVQSO8h4D-dyrIMi-22" value="" style="endArrow=none;html=1;rounded=0;dashed=1;exitX=0;exitY=1;exitDx=0;exitDy=0;entryX=0.25;entryY=0;entryDx=0;entryDy=0;shape=link;" edge="1" parent="1" source="xt2oRVQSO8h4D-dyrIMi-21" target="xt2oRVQSO8h4D-dyrIMi-9">
          <mxGeometry relative="1" as="geometry">
            <mxPoint x="360" y="410" as="sourcePoint" />
            <mxPoint x="520" y="410" as="targetPoint" />
          </mxGeometry>
        </mxCell>
        <mxCell id="xt2oRVQSO8h4D-dyrIMi-23" value="" style="endArrow=none;html=1;rounded=0;dashed=1;shape=link;entryX=0.75;entryY=0;entryDx=0;entryDy=0;exitX=1;exitY=1;exitDx=0;exitDy=0;" edge="1" parent="1" source="xt2oRVQSO8h4D-dyrIMi-21" target="xt2oRVQSO8h4D-dyrIMi-9">
          <mxGeometry relative="1" as="geometry">
            <mxPoint x="360" y="410" as="sourcePoint" />
            <mxPoint x="520" y="410" as="targetPoint" />
          </mxGeometry>
        </mxCell>
        <mxCell id="xt2oRVQSO8h4D-dyrIMi-24" value="&lt;div&gt;femme&lt;/div&gt;" style="text;html=1;strokeColor=none;fillColor=none;align=center;verticalAlign=middle;whiteSpace=wrap;rounded=0;rotation=90;" vertex="1" parent="1">
          <mxGeometry x="375" y="380" width="60" height="30" as="geometry" />
        </mxCell>
        <mxCell id="xt2oRVQSO8h4D-dyrIMi-25" value="&lt;div&gt;homme&lt;/div&gt;" style="text;html=1;strokeColor=none;fillColor=none;align=center;verticalAlign=middle;whiteSpace=wrap;rounded=0;rotation=90;" vertex="1" parent="1">
          <mxGeometry x="435" y="380" width="60" height="30" as="geometry" />
        </mxCell>
        <mxCell id="xt2oRVQSO8h4D-dyrIMi-26" value="&lt;div style=&quot;font-size: 10px;&quot;&gt;marriage&lt;/div&gt;" style="ellipse;whiteSpace=wrap;html=1;align=center;aspect=fixed;fontSize=10;" vertex="1" parent="1">
          <mxGeometry x="250" y="230" width="50" height="20" as="geometry" />
        </mxCell>
        <mxCell id="xt2oRVQSO8h4D-dyrIMi-29" value="date" style="ellipse;whiteSpace=wrap;html=1;align=center;fontSize=10;aspect=fixed;" vertex="1" parent="1">
          <mxGeometry x="170" y="280" width="50" height="20" as="geometry" />
        </mxCell>
        <mxCell id="xt2oRVQSO8h4D-dyrIMi-30" value="&lt;div&gt;jour&lt;/div&gt;" style="ellipse;whiteSpace=wrap;html=1;align=center;fontSize=10;aspect=fixed;" vertex="1" parent="1">
          <mxGeometry x="95" y="340" width="50" height="20" as="geometry" />
        </mxCell>
        <mxCell id="xt2oRVQSO8h4D-dyrIMi-31" value="mois" style="ellipse;whiteSpace=wrap;html=1;align=center;fontSize=10;aspect=fixed;" vertex="1" parent="1">
          <mxGeometry x="170" y="340" width="50" height="20" as="geometry" />
        </mxCell>
        <mxCell id="xt2oRVQSO8h4D-dyrIMi-32" value="année" style="ellipse;whiteSpace=wrap;html=1;align=center;fontSize=10;aspect=fixed;" vertex="1" parent="1">
          <mxGeometry x="245" y="340" width="50" height="20" as="geometry" />
        </mxCell>
        <mxCell id="xt2oRVQSO8h4D-dyrIMi-33" value="lieu" style="ellipse;whiteSpace=wrap;html=1;align=center;fontSize=10;aspect=fixed;" vertex="1" parent="1">
          <mxGeometry x="95" y="280" width="50" height="20" as="geometry" />
        </mxCell>
        <mxCell id="xt2oRVQSO8h4D-dyrIMi-34" value="&lt;div&gt;date&lt;/div&gt;&lt;div&gt;divorce&lt;br&gt;&lt;/div&gt;" style="ellipse;whiteSpace=wrap;html=1;align=center;fontSize=10;aspect=fixed;" vertex="1" parent="1">
          <mxGeometry x="388" y="225" width="75" height="30" as="geometry" />
        </mxCell>
        <mxCell id="xt2oRVQSO8h4D-dyrIMi-36" value="" style="endArrow=none;html=1;rounded=0;fontSize=10;entryX=0;entryY=0;entryDx=0;entryDy=0;exitX=1;exitY=0.5;exitDx=0;exitDy=0;" edge="1" parent="1" source="xt2oRVQSO8h4D-dyrIMi-26" target="xt2oRVQSO8h4D-dyrIMi-21">
          <mxGeometry relative="1" as="geometry">
            <mxPoint x="210" y="310" as="sourcePoint" />
            <mxPoint x="370" y="310" as="targetPoint" />
          </mxGeometry>
        </mxCell>
        <mxCell id="xt2oRVQSO8h4D-dyrIMi-37" value="" style="endArrow=none;html=1;rounded=0;fontSize=10;exitX=0.5;exitY=0;exitDx=0;exitDy=0;entryX=0;entryY=1;entryDx=0;entryDy=0;" edge="1" parent="1" source="xt2oRVQSO8h4D-dyrIMi-29" target="xt2oRVQSO8h4D-dyrIMi-26">
          <mxGeometry relative="1" as="geometry">
            <mxPoint x="210" y="310" as="sourcePoint" />
            <mxPoint x="370" y="310" as="targetPoint" />
          </mxGeometry>
        </mxCell>
        <mxCell id="xt2oRVQSO8h4D-dyrIMi-38" value="" style="endArrow=none;html=1;rounded=0;fontSize=10;entryX=0;entryY=0.5;entryDx=0;entryDy=0;exitX=0.5;exitY=0;exitDx=0;exitDy=0;" edge="1" parent="1" source="xt2oRVQSO8h4D-dyrIMi-33" target="xt2oRVQSO8h4D-dyrIMi-26">
          <mxGeometry relative="1" as="geometry">
            <mxPoint x="50" y="210" as="sourcePoint" />
            <mxPoint x="210" y="210" as="targetPoint" />
          </mxGeometry>
        </mxCell>
        <mxCell id="xt2oRVQSO8h4D-dyrIMi-39" value="" style="endArrow=none;html=1;rounded=0;fontSize=10;exitX=0.5;exitY=0;exitDx=0;exitDy=0;entryX=0.5;entryY=1;entryDx=0;entryDy=0;" edge="1" parent="1" source="xt2oRVQSO8h4D-dyrIMi-30" target="xt2oRVQSO8h4D-dyrIMi-29">
          <mxGeometry relative="1" as="geometry">
            <mxPoint x="210" y="310" as="sourcePoint" />
            <mxPoint x="370" y="310" as="targetPoint" />
          </mxGeometry>
        </mxCell>
        <mxCell id="xt2oRVQSO8h4D-dyrIMi-40" value="" style="endArrow=none;html=1;rounded=0;fontSize=10;exitX=0.5;exitY=1;exitDx=0;exitDy=0;entryX=0.5;entryY=0;entryDx=0;entryDy=0;" edge="1" parent="1" source="xt2oRVQSO8h4D-dyrIMi-29" target="xt2oRVQSO8h4D-dyrIMi-31">
          <mxGeometry relative="1" as="geometry">
            <mxPoint x="210" y="310" as="sourcePoint" />
            <mxPoint x="370" y="310" as="targetPoint" />
          </mxGeometry>
        </mxCell>
        <mxCell id="xt2oRVQSO8h4D-dyrIMi-41" value="" style="endArrow=none;html=1;rounded=0;fontSize=10;exitX=0.5;exitY=1;exitDx=0;exitDy=0;entryX=0.5;entryY=0;entryDx=0;entryDy=0;" edge="1" parent="1" source="xt2oRVQSO8h4D-dyrIMi-29" target="xt2oRVQSO8h4D-dyrIMi-32">
          <mxGeometry relative="1" as="geometry">
            <mxPoint x="210" y="310" as="sourcePoint" />
            <mxPoint x="280" y="310" as="targetPoint" />
          </mxGeometry>
        </mxCell>
        <mxCell id="xt2oRVQSO8h4D-dyrIMi-42" value="" style="endArrow=none;html=1;rounded=0;fontSize=10;dashed=1;exitX=0.5;exitY=1;exitDx=0;exitDy=0;entryX=0.5;entryY=0;entryDx=0;entryDy=0;" edge="1" parent="1" source="xt2oRVQSO8h4D-dyrIMi-34" target="xt2oRVQSO8h4D-dyrIMi-21">
          <mxGeometry relative="1" as="geometry">
            <mxPoint x="330" y="330" as="sourcePoint" />
            <mxPoint x="490" y="330" as="targetPoint" />
          </mxGeometry>
        </mxCell>
        <mxCell id="xt2oRVQSO8h4D-dyrIMi-43" value="&lt;div&gt;sexe&lt;/div&gt;" style="ellipse;whiteSpace=wrap;html=1;align=center;fontSize=10;aspect=fixed;" vertex="1" parent="1">
          <mxGeometry x="350" y="640" width="50" height="20" as="geometry" />
        </mxCell>
        <mxCell id="xt2oRVQSO8h4D-dyrIMi-57" value="&lt;div&gt;mort&lt;/div&gt;" style="ellipse;whiteSpace=wrap;html=1;align=center;aspect=fixed;fontSize=10;" vertex="1" parent="1">
          <mxGeometry x="550" y="450" width="50" height="20" as="geometry" />
        </mxCell>
        <mxCell id="xt2oRVQSO8h4D-dyrIMi-58" value="date" style="ellipse;whiteSpace=wrap;html=1;align=center;fontSize=10;aspect=fixed;" vertex="1" parent="1">
          <mxGeometry x="625" y="450" width="50" height="20" as="geometry" />
        </mxCell>
        <mxCell id="xt2oRVQSO8h4D-dyrIMi-59" value="&lt;div&gt;jour&lt;/div&gt;" style="ellipse;whiteSpace=wrap;html=1;align=center;fontSize=10;aspect=fixed;" vertex="1" parent="1">
          <mxGeometry x="550" y="510" width="50" height="20" as="geometry" />
        </mxCell>
        <mxCell id="xt2oRVQSO8h4D-dyrIMi-60" value="mois" style="ellipse;whiteSpace=wrap;html=1;align=center;fontSize=10;aspect=fixed;" vertex="1" parent="1">
          <mxGeometry x="625" y="510" width="50" height="20" as="geometry" />
        </mxCell>
        <mxCell id="xt2oRVQSO8h4D-dyrIMi-61" value="année" style="ellipse;whiteSpace=wrap;html=1;align=center;fontSize=10;aspect=fixed;" vertex="1" parent="1">
          <mxGeometry x="700" y="510" width="50" height="20" as="geometry" />
        </mxCell>
        <mxCell id="xt2oRVQSO8h4D-dyrIMi-62" value="lieu" style="ellipse;whiteSpace=wrap;html=1;align=center;fontSize=10;aspect=fixed;" vertex="1" parent="1">
          <mxGeometry x="625" y="410" width="50" height="20" as="geometry" />
        </mxCell>
        <mxCell id="xt2oRVQSO8h4D-dyrIMi-63" value="" style="endArrow=none;html=1;rounded=0;fontSize=10;exitX=0;exitY=0.5;exitDx=0;exitDy=0;entryX=1;entryY=0.5;entryDx=0;entryDy=0;" edge="1" parent="1" source="xt2oRVQSO8h4D-dyrIMi-58" target="xt2oRVQSO8h4D-dyrIMi-57">
          <mxGeometry relative="1" as="geometry">
            <mxPoint x="630" y="410" as="sourcePoint" />
            <mxPoint x="790" y="410" as="targetPoint" />
          </mxGeometry>
        </mxCell>
        <mxCell id="xt2oRVQSO8h4D-dyrIMi-64" value="" style="endArrow=none;html=1;rounded=0;fontSize=10;entryX=0.5;entryY=0;entryDx=0;entryDy=0;exitX=0.215;exitY=0.89;exitDx=0;exitDy=0;exitPerimeter=0;" edge="1" parent="1" source="xt2oRVQSO8h4D-dyrIMi-62" target="xt2oRVQSO8h4D-dyrIMi-57">
          <mxGeometry relative="1" as="geometry">
            <mxPoint x="470" y="310" as="sourcePoint" />
            <mxPoint x="630" y="310" as="targetPoint" />
          </mxGeometry>
        </mxCell>
        <mxCell id="xt2oRVQSO8h4D-dyrIMi-65" value="" style="endArrow=none;html=1;rounded=0;fontSize=10;exitX=0.5;exitY=0;exitDx=0;exitDy=0;entryX=0.5;entryY=1;entryDx=0;entryDy=0;" edge="1" parent="1" source="xt2oRVQSO8h4D-dyrIMi-59" target="xt2oRVQSO8h4D-dyrIMi-58">
          <mxGeometry relative="1" as="geometry">
            <mxPoint x="665" y="480" as="sourcePoint" />
            <mxPoint x="825" y="480" as="targetPoint" />
          </mxGeometry>
        </mxCell>
        <mxCell id="xt2oRVQSO8h4D-dyrIMi-66" value="" style="endArrow=none;html=1;rounded=0;fontSize=10;exitX=0.5;exitY=1;exitDx=0;exitDy=0;entryX=0.5;entryY=0;entryDx=0;entryDy=0;" edge="1" parent="1" source="xt2oRVQSO8h4D-dyrIMi-58" target="xt2oRVQSO8h4D-dyrIMi-60">
          <mxGeometry relative="1" as="geometry">
            <mxPoint x="665" y="480" as="sourcePoint" />
            <mxPoint x="825" y="480" as="targetPoint" />
          </mxGeometry>
        </mxCell>
        <mxCell id="xt2oRVQSO8h4D-dyrIMi-67" value="" style="endArrow=none;html=1;rounded=0;fontSize=10;exitX=0.5;exitY=1;exitDx=0;exitDy=0;entryX=0.5;entryY=0;entryDx=0;entryDy=0;" edge="1" parent="1" source="xt2oRVQSO8h4D-dyrIMi-58" target="xt2oRVQSO8h4D-dyrIMi-61">
          <mxGeometry relative="1" as="geometry">
            <mxPoint x="665" y="480" as="sourcePoint" />
            <mxPoint x="735" y="480" as="targetPoint" />
          </mxGeometry>
        </mxCell>
        <mxCell id="xt2oRVQSO8h4D-dyrIMi-68" value="naissance" style="ellipse;whiteSpace=wrap;html=1;align=center;aspect=fixed;fontSize=10;" vertex="1" parent="1">
          <mxGeometry x="550" y="580" width="50" height="20" as="geometry" />
        </mxCell>
        <mxCell id="xt2oRVQSO8h4D-dyrIMi-69" value="date" style="ellipse;whiteSpace=wrap;html=1;align=center;fontSize=10;aspect=fixed;" vertex="1" parent="1">
          <mxGeometry x="625" y="580" width="50" height="20" as="geometry" />
        </mxCell>
        <mxCell id="xt2oRVQSO8h4D-dyrIMi-70" value="&lt;div&gt;jour&lt;/div&gt;" style="ellipse;whiteSpace=wrap;html=1;align=center;fontSize=10;aspect=fixed;" vertex="1" parent="1">
          <mxGeometry x="550" y="640" width="50" height="20" as="geometry" />
        </mxCell>
        <mxCell id="xt2oRVQSO8h4D-dyrIMi-71" value="mois" style="ellipse;whiteSpace=wrap;html=1;align=center;fontSize=10;aspect=fixed;" vertex="1" parent="1">
          <mxGeometry x="625" y="640" width="50" height="20" as="geometry" />
        </mxCell>
        <mxCell id="xt2oRVQSO8h4D-dyrIMi-72" value="année" style="ellipse;whiteSpace=wrap;html=1;align=center;fontSize=10;aspect=fixed;" vertex="1" parent="1">
          <mxGeometry x="700" y="640" width="50" height="20" as="geometry" />
        </mxCell>
        <mxCell id="xt2oRVQSO8h4D-dyrIMi-73" value="lieu" style="ellipse;whiteSpace=wrap;html=1;align=center;fontSize=10;aspect=fixed;" vertex="1" parent="1">
          <mxGeometry x="625" y="540" width="50" height="20" as="geometry" />
        </mxCell>
        <mxCell id="xt2oRVQSO8h4D-dyrIMi-74" value="" style="endArrow=none;html=1;rounded=0;fontSize=10;exitX=0;exitY=0.5;exitDx=0;exitDy=0;entryX=1;entryY=0.5;entryDx=0;entryDy=0;" edge="1" parent="1" source="xt2oRVQSO8h4D-dyrIMi-69" target="xt2oRVQSO8h4D-dyrIMi-68">
          <mxGeometry relative="1" as="geometry">
            <mxPoint x="630" y="540" as="sourcePoint" />
            <mxPoint x="790" y="540" as="targetPoint" />
          </mxGeometry>
        </mxCell>
        <mxCell id="xt2oRVQSO8h4D-dyrIMi-75" value="" style="endArrow=none;html=1;rounded=0;fontSize=10;entryX=0.5;entryY=0;entryDx=0;entryDy=0;exitX=0.215;exitY=0.89;exitDx=0;exitDy=0;exitPerimeter=0;" edge="1" parent="1" source="xt2oRVQSO8h4D-dyrIMi-73" target="xt2oRVQSO8h4D-dyrIMi-68">
          <mxGeometry relative="1" as="geometry">
            <mxPoint x="470" y="440" as="sourcePoint" />
            <mxPoint x="630" y="440" as="targetPoint" />
          </mxGeometry>
        </mxCell>
        <mxCell id="xt2oRVQSO8h4D-dyrIMi-76" value="" style="endArrow=none;html=1;rounded=0;fontSize=10;exitX=0.5;exitY=0;exitDx=0;exitDy=0;entryX=0.5;entryY=1;entryDx=0;entryDy=0;" edge="1" parent="1" source="xt2oRVQSO8h4D-dyrIMi-70" target="xt2oRVQSO8h4D-dyrIMi-69">
          <mxGeometry relative="1" as="geometry">
            <mxPoint x="665" y="610" as="sourcePoint" />
            <mxPoint x="825" y="610" as="targetPoint" />
          </mxGeometry>
        </mxCell>
        <mxCell id="xt2oRVQSO8h4D-dyrIMi-77" value="" style="endArrow=none;html=1;rounded=0;fontSize=10;exitX=0.5;exitY=1;exitDx=0;exitDy=0;entryX=0.5;entryY=0;entryDx=0;entryDy=0;" edge="1" parent="1" source="xt2oRVQSO8h4D-dyrIMi-69" target="xt2oRVQSO8h4D-dyrIMi-71">
          <mxGeometry relative="1" as="geometry">
            <mxPoint x="665" y="610" as="sourcePoint" />
            <mxPoint x="825" y="610" as="targetPoint" />
          </mxGeometry>
        </mxCell>
        <mxCell id="xt2oRVQSO8h4D-dyrIMi-78" value="" style="endArrow=none;html=1;rounded=0;fontSize=10;exitX=0.5;exitY=1;exitDx=0;exitDy=0;entryX=0.5;entryY=0;entryDx=0;entryDy=0;" edge="1" parent="1" source="xt2oRVQSO8h4D-dyrIMi-69" target="xt2oRVQSO8h4D-dyrIMi-72">
          <mxGeometry relative="1" as="geometry">
            <mxPoint x="665" y="610" as="sourcePoint" />
            <mxPoint x="735" y="610" as="targetPoint" />
          </mxGeometry>
        </mxCell>
        <mxCell id="xt2oRVQSO8h4D-dyrIMi-80" value="&lt;div&gt;nom&lt;/div&gt;" style="ellipse;whiteSpace=wrap;html=1;align=center;fontStyle=4;fontSize=10;aspect=fixed;" vertex="1" parent="1">
          <mxGeometry x="413" y="640" width="50" height="20" as="geometry" />
        </mxCell>
        <mxCell id="xt2oRVQSO8h4D-dyrIMi-81" value="prénoms" style="ellipse;whiteSpace=wrap;html=1;align=center;fontStyle=4;fontSize=10;aspect=fixed;" vertex="1" parent="1">
          <mxGeometry x="475" y="640" width="50" height="20" as="geometry" />
        </mxCell>
        <mxCell id="xt2oRVQSO8h4D-dyrIMi-82" value="" style="endArrow=none;html=1;rounded=0;dashed=1;fontSize=10;exitX=1;exitY=0;exitDx=0;exitDy=0;entryX=0;entryY=0.5;entryDx=0;entryDy=0;" edge="1" parent="1" source="xt2oRVQSO8h4D-dyrIMi-9" target="xt2oRVQSO8h4D-dyrIMi-57">
          <mxGeometry relative="1" as="geometry">
            <mxPoint x="510" y="530" as="sourcePoint" />
            <mxPoint x="540" y="500" as="targetPoint" />
          </mxGeometry>
        </mxCell>
        <mxCell id="xt2oRVQSO8h4D-dyrIMi-83" value="" style="endArrow=none;html=1;rounded=0;fontSize=10;exitX=1;exitY=0.5;exitDx=0;exitDy=0;entryX=0;entryY=0.5;entryDx=0;entryDy=0;" edge="1" parent="1" source="xt2oRVQSO8h4D-dyrIMi-9" target="xt2oRVQSO8h4D-dyrIMi-68">
          <mxGeometry relative="1" as="geometry">
            <mxPoint x="430" y="580" as="sourcePoint" />
            <mxPoint x="590" y="580" as="targetPoint" />
          </mxGeometry>
        </mxCell>
        <mxCell id="xt2oRVQSO8h4D-dyrIMi-84" value="" style="endArrow=none;html=1;rounded=0;fontSize=10;exitX=0.25;exitY=1;exitDx=0;exitDy=0;entryX=0.5;entryY=0;entryDx=0;entryDy=0;" edge="1" parent="1" source="xt2oRVQSO8h4D-dyrIMi-9" target="xt2oRVQSO8h4D-dyrIMi-43">
          <mxGeometry relative="1" as="geometry">
            <mxPoint x="430" y="580" as="sourcePoint" />
            <mxPoint x="590" y="580" as="targetPoint" />
          </mxGeometry>
        </mxCell>
        <mxCell id="xt2oRVQSO8h4D-dyrIMi-85" value="" style="endArrow=none;html=1;rounded=0;fontSize=10;exitX=0.5;exitY=0;exitDx=0;exitDy=0;entryX=0.5;entryY=1;entryDx=0;entryDy=0;" edge="1" parent="1" source="xt2oRVQSO8h4D-dyrIMi-80" target="xt2oRVQSO8h4D-dyrIMi-9">
          <mxGeometry relative="1" as="geometry">
            <mxPoint x="430" y="580" as="sourcePoint" />
            <mxPoint x="590" y="580" as="targetPoint" />
          </mxGeometry>
        </mxCell>
        <mxCell id="xt2oRVQSO8h4D-dyrIMi-86" value="" style="endArrow=none;html=1;rounded=0;fontSize=10;exitX=0.75;exitY=1;exitDx=0;exitDy=0;entryX=0.5;entryY=0;entryDx=0;entryDy=0;shadow=0;strokeColor=default;" edge="1" parent="1" source="xt2oRVQSO8h4D-dyrIMi-9" target="xt2oRVQSO8h4D-dyrIMi-81">
          <mxGeometry relative="1" as="geometry">
            <mxPoint x="430" y="580" as="sourcePoint" />
            <mxPoint x="590" y="580" as="targetPoint" />
          </mxGeometry>
        </mxCell>
        <mxCell id="xt2oRVQSO8h4D-dyrIMi-87" value="" style="endArrow=none;html=1;rounded=0;shadow=0;fontSize=10;strokeColor=default;exitX=0.78;exitY=1.003;exitDx=0;exitDy=0;exitPerimeter=0;entryX=0.569;entryY=-0.017;entryDx=0;entryDy=0;entryPerimeter=0;dashed=1;" edge="1" parent="1" source="xt2oRVQSO8h4D-dyrIMi-9" target="xt2oRVQSO8h4D-dyrIMi-81">
          <mxGeometry relative="1" as="geometry">
            <mxPoint x="460" y="600" as="sourcePoint" />
            <mxPoint x="620" y="600" as="targetPoint" />
          </mxGeometry>
        </mxCell>
      </root>
    </mxGraphModel>
  </diagram>
  <diagram id="133onkb4euRjaERxImNl" name="Exercice-2">
    <mxGraphModel dx="1362" dy="710" grid="1" gridSize="10" guides="1" tooltips="1" connect="1" arrows="1" fold="1" page="1" pageScale="1" pageWidth="850" pageHeight="1100" math="0" shadow="0">
      <root>
        <mxCell id="4lcqPjJfZOcGb1gDI9CG-0" />
        <mxCell id="4lcqPjJfZOcGb1gDI9CG-1" parent="4lcqPjJfZOcGb1gDI9CG-0" />
      </root>
    </mxGraphModel>
  </diagram>
</mxfile>
